<?xml version="1.0" encoding="utf-8"?>
<!-- Generator: Adobe Illustrator 16.0.0, SVG Export Plug-In . SVG Version: 6.00 Build 0)  -->
<!DOCTYPE svg PUBLIC "-//W3C//DTD SVG 1.1//EN" "http://www.w3.org/Graphics/SVG/1.1/DTD/svg11.dtd">
<svg version="1.1" id="Layer_1" xmlns="http://www.w3.org/2000/svg" xmlns:xlink="http://www.w3.org/1999/xlink" x="0px" y="0px"
	 width="200px" height="200px" viewBox="0 0 200 200" enable-background="new 0 0 200 200" xml:space="preserve">
<g id="Facebook_6_">
	<path fill="#55b145" d="M100.062,200.156C44.831,200.156,0,155.291,0,100.078C0,44.849,44.831,0,100.062,0
		c55.229,0,100.061,44.849,100.061,100.078C200.122,155.291,155.29,200.156,100.062,200.156z M100.062,7.603
		c-50.917,0-92.459,41.559-92.459,92.476c0,50.917,41.542,92.475,92.459,92.475c50.934,0,92.476-41.558,92.476-92.475
		C192.537,49.162,150.995,7.603,100.062,7.603z"/>
	<path id="Facebook_1_" fill="#55b145" d="M145.915,139.592c0,2.794-2.284,5.063-5.063,5.063H117.04v-35.968h12.151l1.791-13.944
		H117.04v-8.864c0-4.058,1.021-6.835,6.835-6.835h7.347V66.378c-1.261-0.255-5.575-0.511-10.894-0.511
		c-10.636,0-17.982,6.597-17.982,18.512v10.364H90.174v13.944h12.171v35.968H57.751c-2.794,0-5.062-2.269-5.062-5.063V56.764
		c0-2.796,2.268-5.08,5.062-5.08h82.845c2.796,0,5.08,2.284,5.08,5.08v82.828H145.915z"/>
</g>
</svg>
