<svg xmlns="http://www.w3.org/2000/svg" width="679.275" height="139.285" viewBox="-129.725 0 679.275 139.285"><g fill="#08589A"><path d="M88.783 36.26l10.012-.974c.603 3.36 1.825 5.829 3.667 7.404 1.843 1.576 4.328 2.364 7.457 2.364 3.314 0 5.811-.701 7.492-2.104 1.68-1.401 2.521-3.042 2.521-4.919 0-1.205-.354-2.23-1.061-3.076s-1.941-1.582-3.702-2.208c-1.206-.417-3.952-1.158-8.239-2.225-5.516-1.367-9.386-3.048-11.611-5.041-3.129-2.804-4.693-6.223-4.693-10.255 0-2.596.735-5.023 2.208-7.283 1.472-2.26 3.592-3.98 6.362-5.163 2.769-1.182 6.112-1.772 10.029-1.772 6.396 0 11.211 1.402 14.444 4.206 3.233 2.805 4.931 6.548 5.093 11.229l-10.29.451c-.441-2.618-1.385-4.502-2.833-5.648-1.449-1.147-3.622-1.722-6.518-1.722-2.99 0-5.331.615-7.022 1.843-1.09.788-1.634 1.843-1.634 3.164 0 1.205.509 2.236 1.529 3.094 1.298 1.09 4.45 2.225 9.456 3.407 5.006 1.182 8.708 2.404 11.107 3.667 2.399 1.264 4.276 2.99 5.632 5.18 1.356 2.19 2.034 4.896 2.034 8.118 0 2.92-.812 5.654-2.434 8.204-1.623 2.55-3.917 4.444-6.883 5.684-2.967 1.239-6.663 1.86-11.089 1.86-6.443 0-11.392-1.489-14.844-4.468-3.456-2.976-5.518-7.316-6.19-13.017zm61.567 16.582V10.499h-15.122V1.878h40.5v8.621H160.64v42.343h-10.29zm31.705 0V1.878h10.29v50.964h-10.29zm20.371 0V2.295h10.29v41.96h25.586v8.587h-35.876zm106.794-6.223l-5.909 7.544c-2.897-1.414-5.679-3.36-8.344-5.841-2.062 1.854-4.253 3.222-6.57 4.103-2.317.88-5.075 1.321-8.273 1.321-6.351 0-11.125-1.785-14.323-5.354-2.48-2.758-3.72-5.933-3.72-9.525 0-3.268.973-6.205 2.92-8.812s4.855-4.872 8.726-6.796c-1.738-2.062-3.048-4.026-3.929-5.893-.881-1.865-1.321-3.633-1.321-5.302 0-3.082 1.234-5.695 3.702-7.839s5.985-3.216 10.551-3.216c4.402 0 7.845 1.124 10.324 3.372s3.72 4.994 3.72 8.239c0 2.062-.614 4.021-1.842 5.875-1.229 1.854-3.709 3.951-7.44 6.292l7.093 9.352c.834-1.482 1.552-3.418 2.155-5.806l8.83 2.017c-.882 3.129-1.646 5.418-2.295 6.866-.649 1.448-1.345 2.659-2.086 3.633 1.089 1.02 2.497 2.138 4.224 3.354s2.996 2.023 3.807 2.416zm-30.418-17.103c-2.248 1.136-3.928 2.503-5.041 4.102-1.112 1.6-1.669 3.233-1.669 4.901 0 2.109.689 3.83 2.069 5.163 1.378 1.333 3.227 1.999 5.544 1.999 1.53 0 3.002-.301 4.415-.904 1.414-.603 2.955-1.599 4.624-2.989l-9.942-12.272zm3.824-10.604l2.642-2.017c1.947-1.506 2.92-3.001 2.92-4.484 0-1.251-.469-2.317-1.407-3.198s-2.208-1.321-3.807-1.321c-1.554 0-2.77.389-3.65 1.165s-1.321 1.675-1.321 2.694c0 1.205.741 2.665 2.225 4.38l2.398 2.781zm64.174 33.93V10.499h-15.122V1.878h40.5v8.621H357.09v42.343H346.8zm28.647-25.169c0-5.191.775-9.549 2.329-13.071a23.948 23.948 0 0 1 4.745-6.987c2.004-2.062 4.2-3.593 6.588-4.589 3.175-1.345 6.836-2.017 10.985-2.017 7.509 0 13.517 2.329 18.024 6.987s6.762 11.137 6.762 19.434c0 8.228-2.236 14.665-6.709 19.311-4.474 4.647-10.453 6.971-17.938 6.971-7.578 0-13.604-2.312-18.077-6.936-4.474-4.623-6.709-10.992-6.709-19.103zm10.602-.348c0 5.771 1.332 10.146 3.998 13.123 2.665 2.979 6.049 4.468 10.151 4.468 4.102 0 7.468-1.478 10.099-4.433 2.63-2.955 3.945-7.388 3.945-13.298 0-5.84-1.28-10.197-3.841-13.071-2.562-2.873-5.962-4.311-10.203-4.311s-7.66 1.455-10.256 4.363-3.893 7.296-3.893 13.159zm46.966 25.517V1.878h10.013l20.858 34.034V1.878h9.561v50.964h-10.326l-20.545-33.234v33.234h-9.561zm51.313 0V1.878h37.789v8.621h-27.499v11.299h25.587v8.586h-25.587v13.871h28.472v8.587h-38.762z"/><path d="M66.429 38.104v-7.475h479.986v7.475H66.429z"/></g><path d="M-64.125 120.696l10.012-.974c.603 3.36 1.825 5.829 3.667 7.404 1.843 1.576 4.328 2.364 7.457 2.364 3.314 0 5.811-.701 7.492-2.104 1.68-1.401 2.521-3.042 2.521-4.919 0-1.205-.354-2.23-1.061-3.076s-1.941-1.582-3.702-2.208c-1.206-.417-3.952-1.158-8.239-2.225-5.516-1.367-9.386-3.048-11.611-5.041-3.129-2.804-4.693-6.223-4.693-10.255 0-2.596.735-5.023 2.208-7.283 1.472-2.26 3.592-3.98 6.362-5.163 2.769-1.182 6.112-1.772 10.029-1.772 6.396 0 11.211 1.402 14.444 4.206 3.233 2.805 4.931 6.548 5.093 11.229l-10.29.451c-.441-2.618-1.385-4.502-2.833-5.648-1.449-1.147-3.622-1.722-6.518-1.722-2.99 0-5.331.615-7.022 1.843-1.09.788-1.634 1.843-1.634 3.164 0 1.205.509 2.236 1.529 3.094 1.298 1.09 4.45 2.225 9.456 3.407 5.006 1.182 8.708 2.404 11.107 3.667 2.399 1.264 4.276 2.99 5.632 5.18 1.356 2.19 2.034 4.896 2.034 8.118 0 2.92-.812 5.654-2.434 8.204-1.623 2.55-3.917 4.444-6.883 5.684-2.967 1.239-6.663 1.86-11.089 1.86-6.443 0-11.392-1.489-14.844-4.468-3.455-2.976-5.518-7.316-6.19-13.017zm49.957 16.582V86.314h15.4l9.247 34.764 9.143-34.764h15.435v50.964h-9.56V97.16l-10.116 40.117H5.473L-4.608 97.16v40.117h-9.56zm105.403 0H80.042l-4.45-11.576H55.22l-4.207 11.576H40.098l19.85-50.964h10.881l20.406 50.964zm-18.946-20.163l-7.022-18.912-6.883 18.912h13.905zm48.113 1.424v-8.586h22.18v20.302c-2.155 2.086-5.279 3.923-9.369 5.51-4.09 1.588-8.233 2.382-12.428 2.382-5.331 0-9.978-1.118-13.94-3.354-3.963-2.236-6.941-5.435-8.935-9.595s-2.99-8.686-2.99-13.576c0-5.307 1.113-10.023 3.337-14.148 2.225-4.125 5.481-7.289 9.769-9.49 3.268-1.692 7.335-2.538 12.202-2.538 6.327 0 11.269 1.327 14.827 3.98 3.557 2.654 5.846 6.321 6.866 11.003l-10.221 1.912c-.718-2.503-2.068-4.479-4.05-5.928-1.981-1.448-4.456-2.173-7.422-2.173-4.496 0-8.071 1.426-10.725 4.276s-3.98 7.08-3.98 12.688c0 6.049 1.344 10.586 4.033 13.61 2.688 3.024 6.211 4.537 10.568 4.537 2.155 0 4.316-.423 6.483-1.27 2.167-.846 4.027-1.871 5.58-3.076v-6.467h-11.785zm49.366-6.43c0-5.191.776-9.549 2.329-13.071a23.968 23.968 0 0 1 4.745-6.987c2.004-2.062 4.201-3.593 6.588-4.589 3.175-1.345 6.836-2.017 10.985-2.017 7.509 0 13.517 2.329 18.025 6.987s6.762 11.137 6.762 19.434c0 8.228-2.237 14.665-6.709 19.311-4.473 4.647-10.453 6.971-17.938 6.971-7.579 0-13.605-2.312-18.078-6.936-4.474-4.624-6.709-10.992-6.709-19.103zm10.603-.348c0 5.771 1.332 10.146 3.998 13.123 2.665 2.979 6.049 4.468 10.151 4.468 4.102 0 7.468-1.478 10.099-4.433s3.946-7.388 3.946-13.298c0-5.84-1.281-10.197-3.841-13.071-2.561-2.873-5.962-4.311-10.203-4.311s-7.66 1.455-10.255 4.363c-2.598 2.909-3.895 7.296-3.895 13.159zm67.722 6.778v-8.586h22.18v20.302c-2.155 2.086-5.279 3.923-9.369 5.51-4.09 1.588-8.233 2.382-12.428 2.382-5.331 0-9.978-1.118-13.94-3.354-3.963-2.236-6.941-5.435-8.935-9.595s-2.99-8.686-2.99-13.576c0-5.307 1.113-10.023 3.337-14.148 2.225-4.125 5.481-7.289 9.769-9.49 3.268-1.692 7.335-2.538 12.202-2.538 6.327 0 11.269 1.327 14.827 3.98 3.557 2.654 5.846 6.321 6.866 11.003l-10.221 1.912c-.718-2.503-2.068-4.479-4.05-5.928-1.981-1.448-4.456-2.173-7.422-2.173-4.496 0-8.071 1.426-10.725 4.276s-3.98 7.08-3.98 12.688c0 6.049 1.344 10.586 4.033 13.61 2.688 3.024 6.211 4.537 10.568 4.537 2.155 0 4.316-.423 6.483-1.27 2.167-.846 4.027-1.871 5.58-3.076v-6.467h-11.785zm51.487-32.225h20.371c4.033 0 7.04.168 9.021.504 1.982.336 3.755 1.037 5.318 2.104 1.564 1.066 2.869 2.485 3.912 4.258 1.041 1.773 1.562 3.761 1.562 5.963 0 2.387-.643 4.577-1.928 6.57-1.287 1.993-3.031 3.488-5.232 4.484 3.105.903 5.492 2.445 7.16 4.623 1.67 2.179 2.504 4.74 2.504 7.684 0 2.317-.539 4.571-1.617 6.762-1.076 2.189-2.549 3.939-4.414 5.249s-4.166 2.115-6.9 2.416c-1.715.186-5.853.302-12.41.348H299.58V86.314zm10.29 8.482v11.785h6.744c4.009 0 6.501-.058 7.474-.174 1.762-.209 3.146-.817 4.154-1.825 1.009-1.009 1.513-2.335 1.513-3.98 0-1.576-.435-2.856-1.304-3.842-.869-.984-2.161-1.582-3.876-1.79-1.021-.116-3.952-.174-8.796-.174h-5.909zm0 20.268v13.627h9.525c3.708 0 6.06-.104 7.058-.312 1.529-.278 2.774-.956 3.736-2.034.961-1.077 1.443-2.521 1.443-4.328 0-1.529-.371-2.827-1.113-3.894-.742-1.065-1.813-1.842-3.215-2.329-1.402-.486-4.445-.729-9.126-.729h-8.308zm41.09 22.214V86.314h37.789v8.621h-27.5v11.299h25.588v8.586H361.25v13.871h28.473v8.587H350.96zm47.524 0V86.314h10.289v20.059h20.164V86.314h10.289v50.964h-10.289v-22.284h-20.164v22.284h-10.289zm97.338 0h-11.193l-4.449-11.576h-20.373l-4.205 11.576h-10.916l19.85-50.964h10.881l20.405 50.964zm-18.946-20.163l-7.023-18.912-6.883 18.912h13.906zm48.112 1.424v-8.586h22.18v20.302c-2.154 2.086-5.277 3.923-9.369 5.51-4.09 1.588-8.232 2.382-12.428 2.382-5.33 0-9.977-1.118-13.939-3.354s-6.941-5.435-8.936-9.595c-1.992-4.16-2.988-8.686-2.988-13.576 0-5.307 1.111-10.023 3.336-14.148s5.48-7.289 9.77-9.49c3.268-1.692 7.334-2.538 12.201-2.538 6.328 0 11.27 1.327 14.828 3.98 3.557 2.654 5.846 6.321 6.865 11.003l-10.221 1.912c-.719-2.503-2.068-4.479-4.051-5.928-1.98-1.448-4.455-2.173-7.422-2.173-4.496 0-8.07 1.426-10.725 4.276s-3.98 7.08-3.98 12.688c0 6.049 1.344 10.586 4.033 13.61 2.688 3.024 6.211 4.537 10.568 4.537 2.156 0 4.316-.423 6.484-1.27 2.166-.846 4.025-1.871 5.578-3.076v-6.467h-11.784z" fill="#08589A"/></svg>