<svg xmlns="http://www.w3.org/2000/svg" width="693.119" height="152.148" viewBox="-130.881 0 693.119 152.148"><g fill="#08589A"><path d="M242.567 59.074V16.731h-15.122V8.11h40.5v8.621h-15.088v42.343h-10.29zm32.017 0V8.11h37.789v8.621h-27.498V28.03h25.586v8.586h-25.586v13.871h28.472v8.587h-38.763zm47.523 0V8.11h21.657c5.446 0 9.404.458 11.872 1.373 2.469.916 4.444 2.544 5.928 4.885 1.482 2.341 2.225 5.018 2.225 8.03 0 3.824-1.124 6.981-3.372 9.473-2.248 2.492-5.609 4.062-10.082 4.711 2.226 1.298 4.062 2.724 5.511 4.275 1.448 1.554 3.4 4.312 5.857 8.274l6.223 9.942h-12.307l-7.439-11.09c-2.642-3.963-4.449-6.46-5.423-7.491s-2.005-1.738-3.094-2.121c-1.09-.382-2.816-.573-5.18-.573h-2.086v21.275h-10.29zm10.29-29.41h7.613c4.937 0 8.019-.209 9.247-.626 1.228-.417 2.19-1.135 2.885-2.155.695-1.02 1.043-2.295 1.043-3.824 0-1.715-.457-3.1-1.373-4.154-.915-1.055-2.207-1.721-3.876-1.999-.834-.115-3.337-.174-7.509-.174h-8.03v12.932zm40.953 29.41V8.11h15.4l9.247 34.764L407.14 8.11h15.436v50.964h-9.561V18.957l-10.116 40.117h-9.907L382.91 18.957v40.117h-9.56zm59.445 0V8.11h37.789v8.621h-27.498V28.03h25.586v8.586h-25.586v13.871h28.472v8.587h-38.763zm47.523 0V8.11h21.657c5.446 0 9.404.458 11.872 1.373 2.469.916 4.444 2.544 5.928 4.885 1.482 2.341 2.225 5.018 2.225 8.03 0 3.824-1.124 6.981-3.372 9.473-2.248 2.492-5.609 4.062-10.082 4.711 2.226 1.298 4.062 2.724 5.511 4.275 1.448 1.554 3.4 4.312 5.857 8.274l6.223 9.942H513.83l-7.439-11.09c-2.642-3.963-4.449-6.46-5.423-7.491s-2.005-1.738-3.094-2.121c-1.09-.382-2.816-.573-5.18-.573h-2.086v21.275h-10.29zm10.29-29.41h7.613c4.937 0 8.019-.209 9.247-.626 1.228-.417 2.19-1.135 2.885-2.155.695-1.02 1.043-2.295 1.043-3.824 0-1.715-.457-3.1-1.373-4.154-.915-1.055-2.207-1.721-3.876-1.999-.834-.115-3.337-.174-7.509-.174h-8.03v12.932z"/><path d="M206.134 44.336v-7.475H546.3v7.475H206.134z"/></g><path d="M-101.631 136.339V85.375h34.938v8.621H-91.34v12.063h21.275v8.621H-91.34v21.658h-10.291zm84.026 0h-11.194l-4.45-11.576h-20.372l-4.207 11.576h-10.916l19.85-50.964h10.881l20.408 50.964zm-18.947-20.163l-7.022-18.912-6.883 18.912h13.905zm20.373 3.581l10.012-.974c.603 3.36 1.825 5.829 3.667 7.404 1.843 1.576 4.328 2.364 7.457 2.364 3.314 0 5.811-.701 7.492-2.104 1.68-1.401 2.521-3.042 2.521-4.919 0-1.205-.354-2.23-1.061-3.076s-1.941-1.582-3.702-2.208c-1.206-.417-3.952-1.158-8.239-2.225-5.516-1.367-9.386-3.048-11.611-5.041-3.129-2.804-4.693-6.223-4.693-10.255 0-2.596.735-5.023 2.208-7.283 1.472-2.26 3.592-3.98 6.362-5.163 2.769-1.182 6.112-1.772 10.029-1.772 6.396 0 11.211 1.402 14.444 4.206 3.233 2.805 4.931 6.548 5.093 11.229l-10.29.451c-.441-2.618-1.385-4.502-2.833-5.648-1.449-1.147-3.622-1.722-6.518-1.722-2.99 0-5.331.615-7.022 1.843-1.09.788-1.634 1.843-1.634 3.164 0 1.205.509 2.236 1.529 3.094 1.298 1.09 4.45 2.225 9.456 3.407 5.006 1.182 8.708 2.404 11.107 3.667 2.399 1.264 4.276 2.99 5.632 5.18 1.356 2.19 2.034 4.896 2.034 8.118 0 2.92-.812 5.654-2.434 8.204-1.623 2.55-3.917 4.444-6.883 5.684-2.967 1.239-6.663 1.86-11.089 1.86-6.443 0-11.392-1.489-14.844-4.468-3.455-2.976-5.518-7.316-6.19-13.017zm60.143 16.582V93.996H28.842v-8.621h40.5v8.621H54.254v42.343h-10.29zm30.594 0V85.375h37.789v8.621H84.849v11.299h25.586v8.586H84.849v13.871h28.472v8.587H74.558zm77.422 0l-18.216-50.964h11.159l12.897 37.719 12.48-37.719h10.916l-18.251 50.964H151.98zm33.062 0V85.375h37.789v8.621h-27.498v11.299h25.586v8.586h-25.586v13.871h28.472v8.587h-38.763zm46.168 0V85.375h10.012l20.858 34.034V85.375h9.56v50.964h-10.325l-20.545-33.234v33.234h-9.56zm49.853-50.964h18.807c4.241 0 7.475.324 9.699.974 2.99.881 5.551 2.445 7.683 4.692 2.133 2.249 3.755 5.001 4.867 8.257 1.112 3.257 1.669 7.271 1.669 12.046 0 4.195-.521 7.811-1.564 10.846-1.274 3.709-3.094 6.71-5.458 9.004-1.785 1.738-4.195 3.095-7.23 4.067-2.272.719-5.308 1.078-9.108 1.078h-19.364V85.375zm10.291 8.621v33.756h7.683c2.873 0 4.948-.162 6.223-.486 1.669-.417 3.054-1.124 4.154-2.121 1.101-.996 1.999-2.636 2.694-4.919.695-2.282 1.043-5.394 1.043-9.334 0-3.939-.348-6.964-1.043-9.073-.695-2.108-1.669-3.755-2.92-4.937-1.252-1.182-2.84-1.981-4.763-2.398-1.438-.324-4.254-.487-8.448-.487h-4.623zm39.423 42.343V85.375h10.29v50.964h-10.29zm18.774 0V85.375h10.012l20.858 34.034V85.375h9.561v50.964h-10.325l-20.546-33.234v33.234h-9.56zm73.596-18.739v-8.586h22.18v20.302c-2.155 2.086-5.278 3.923-9.369 5.51-4.091 1.588-8.233 2.382-12.428 2.382-5.331 0-9.978-1.118-13.94-3.354s-6.941-5.435-8.935-9.595-2.989-8.686-2.989-13.576c0-5.307 1.112-10.023 3.337-14.148s5.48-7.289 9.769-9.49c3.268-1.692 7.335-2.538 12.202-2.538 6.327 0 11.27 1.327 14.827 3.98 3.558 2.654 5.846 6.321 6.866 11.003l-10.221 1.912c-.719-2.503-2.068-4.479-4.051-5.928-1.981-1.448-4.455-2.173-7.422-2.173-4.496 0-8.071 1.426-10.725 4.276-2.654 2.851-3.98 7.08-3.98 12.688 0 6.049 1.344 10.586 4.033 13.61 2.688 3.024 6.21 4.537 10.567 4.537 2.156 0 4.316-.423 6.484-1.27 2.166-.846 4.026-1.871 5.579-3.076V117.6h-11.784zm30.247 18.739V85.375h37.789v8.621h-27.499v11.299h25.587v8.586h-25.587v13.871h28.472v8.587h-38.762zm46.098 0V85.375h21.658c5.445 0 9.403.458 11.871 1.373 2.469.916 4.444 2.544 5.928 4.885 1.482 2.341 2.225 5.018 2.225 8.03 0 3.824-1.124 6.981-3.372 9.473-2.248 2.492-5.608 4.062-10.081 4.711 2.225 1.298 4.061 2.724 5.51 4.275 1.448 1.554 3.4 4.312 5.857 8.274l6.223 9.942h-12.306l-7.439-11.09c-2.643-3.963-4.45-6.46-5.424-7.491s-2.005-1.738-3.094-2.121c-1.09-.382-2.816-.573-5.18-.573h-2.086v21.275h-10.29zm10.29-29.411h7.613c4.937 0 8.019-.209 9.247-.626s2.19-1.135 2.886-2.155c.695-1.02 1.043-2.295 1.043-3.824 0-1.715-.458-3.1-1.373-4.154-.916-1.055-2.208-1.721-3.877-1.999-.834-.115-3.337-.174-7.509-.174h-8.03v12.932z" fill="#08589A"/></svg>