<svg xmlns="http://www.w3.org/2000/svg" width="701.879" height="154.338" viewBox="-135.121 0 701.879 154.338"><g fill="#08589A"><path d="M226.695 54.093L208.479 3.129h11.159l12.897 37.719 12.48-37.719h10.916L237.68 54.093h-10.985zm75.16 0h-11.194l-4.449-11.576H265.84l-4.207 11.576h-10.916l19.85-50.964h10.881l20.407 50.964zM282.909 33.93l-7.022-18.912-6.883 18.912h13.905zm24.683 20.163V3.546h10.29v41.96h25.586v8.587h-35.876zm42.898 0V3.129h10.29v50.964h-10.29zm20.059-50.964h18.808c4.241 0 7.475.324 9.699.974 2.989.881 5.55 2.445 7.683 4.692 2.132 2.249 3.755 5.001 4.867 8.257 1.112 3.257 1.669 7.271 1.669 12.046 0 4.195-.521 7.811-1.564 10.846-1.275 3.709-3.094 6.71-5.458 9.004-1.785 1.738-4.195 3.095-7.231 4.067-2.271.719-5.308 1.078-9.107 1.078h-19.364V3.129zm10.29 8.621v33.756h7.684c2.873 0 4.947-.162 6.223-.486 1.668-.417 3.053-1.124 4.154-2.121 1.101-.996 1.999-2.636 2.694-4.919.695-2.282 1.043-5.394 1.043-9.334 0-3.939-.348-6.964-1.043-9.073-.695-2.108-1.669-3.755-2.921-4.937-1.251-1.182-2.839-1.981-4.763-2.398-1.437-.324-4.253-.487-8.447-.487h-4.624zm41.16 42.343V3.129h37.789v8.621H432.29v11.299h25.586v8.586H432.29v13.871h28.472v8.587h-38.763zm47.523 0V3.129h21.657c5.446 0 9.404.458 11.872 1.373 2.469.916 4.444 2.544 5.928 4.885 1.482 2.341 2.225 5.018 2.225 8.03 0 3.824-1.124 6.981-3.372 9.473-2.248 2.492-5.609 4.062-10.082 4.711 2.226 1.298 4.062 2.724 5.511 4.275 1.448 1.554 3.4 4.312 5.857 8.274l6.223 9.942h-12.307l-7.439-11.09c-2.642-3.963-4.449-6.46-5.423-7.491s-2.005-1.738-3.094-2.121c-1.09-.382-2.816-.573-5.18-.573h-2.086v21.275h-10.29zm10.29-29.41h7.613c4.937 0 8.019-.209 9.247-.626 1.228-.417 2.19-1.135 2.885-2.155.695-1.02 1.043-2.295 1.043-3.824 0-1.715-.457-3.1-1.373-4.154-.915-1.055-2.207-1.721-3.876-1.999-.834-.115-3.337-.174-7.509-.174h-8.03v12.932zm41.091 29.41V3.129h37.788v8.621h-27.498v11.299h25.586v8.586h-25.586v13.871h28.472v8.587h-38.762z"/><path d="M188.733 39.355V31.88h374.478v7.475H188.733z"/></g><path d="M-76.142 139.53h-11.194l-4.45-11.576h-20.372l-4.207 11.576h-10.916l19.85-50.964h10.881l20.408 50.964zm-18.946-20.164l-7.022-18.912-6.883 18.912h13.905zm30.592 20.164V97.187h-15.122v-8.621h40.5v8.621h-15.088v42.343h-10.29zm49.192-16.582l10.012-.974c.603 3.36 1.825 5.829 3.667 7.404 1.843 1.576 4.328 2.364 7.457 2.364 3.314 0 5.811-.701 7.492-2.104 1.68-1.401 2.521-3.042 2.521-4.919 0-1.205-.354-2.23-1.061-3.076s-1.941-1.582-3.702-2.208c-1.206-.417-3.952-1.158-8.239-2.225-5.516-1.367-9.386-3.048-11.611-5.041-3.129-2.804-4.693-6.223-4.693-10.255 0-2.596.735-5.023 2.208-7.283 1.472-2.26 3.592-3.98 6.362-5.163 2.769-1.182 6.112-1.772 10.029-1.772 6.396 0 11.211 1.402 14.444 4.206 3.233 2.805 4.931 6.548 5.093 11.229l-10.29.451c-.441-2.618-1.385-4.502-2.833-5.648-1.449-1.147-3.622-1.722-6.518-1.722-2.99 0-5.331.615-7.022 1.843-1.09.788-1.634 1.843-1.634 3.164 0 1.205.509 2.236 1.529 3.094 1.298 1.09 4.45 2.225 9.456 3.407 5.006 1.182 8.708 2.404 11.107 3.667 2.399 1.264 4.276 2.99 5.632 5.18 1.356 2.19 2.034 4.896 2.034 8.118 0 2.92-.812 5.654-2.434 8.204-1.623 2.55-3.917 4.444-6.883 5.684-2.967 1.239-6.663 1.86-11.089 1.86-6.443 0-11.392-1.489-14.844-4.468-3.456-2.976-5.518-7.316-6.19-13.017zm49.782 16.582V88.566h10.29v50.964h-10.29zm43.802-18.739v-8.586h22.18v20.302c-2.155 2.086-5.279 3.923-9.369 5.51-4.09 1.588-8.233 2.382-12.428 2.382-5.331 0-9.978-1.118-13.94-3.354-3.963-2.236-6.941-5.435-8.935-9.595s-2.99-8.686-2.99-13.576c0-5.307 1.113-10.023 3.337-14.148 2.225-4.125 5.481-7.289 9.769-9.49 3.268-1.692 7.335-2.538 12.202-2.538 6.327 0 11.269 1.327 14.827 3.98 3.557 2.654 5.846 6.321 6.866 11.003l-10.221 1.912c-.718-2.503-2.068-4.479-4.05-5.928-1.981-1.448-4.456-2.173-7.422-2.173-4.496 0-8.071 1.426-10.725 4.276s-3.98 7.08-3.98 12.688c0 6.049 1.344 10.586 4.033 13.61 2.688 3.024 6.211 4.537 10.568 4.537 2.155 0 4.316-.423 6.483-1.27 2.167-.846 4.027-1.871 5.58-3.076v-6.467H78.28zm31.67 18.739V88.566h37.789v8.621h-27.498v11.299h25.586v8.586h-25.586v13.871h28.472v8.587H109.95zm90.978-18.739v-8.586h22.18v20.302c-2.155 2.086-5.279 3.923-9.369 5.51-4.09 1.588-8.233 2.382-12.428 2.382-5.331 0-9.978-1.118-13.94-3.354-3.963-2.236-6.941-5.435-8.935-9.595s-2.99-8.686-2.99-13.576c0-5.307 1.113-10.023 3.337-14.148 2.225-4.125 5.481-7.289 9.769-9.49 3.268-1.692 7.335-2.538 12.202-2.538 6.327 0 11.269 1.327 14.827 3.98 3.557 2.654 5.846 6.321 6.866 11.003l-10.221 1.912c-.718-2.503-2.068-4.479-4.05-5.928-1.981-1.448-4.456-2.173-7.422-2.173-4.496 0-8.071 1.426-10.725 4.276s-3.98 7.08-3.98 12.688c0 6.049 1.344 10.586 4.033 13.61 2.688 3.024 6.211 4.537 10.568 4.537 2.155 0 4.316-.423 6.483-1.27 2.167-.846 4.027-1.871 5.58-3.076v-6.467h-11.785zm29.584-6.43c0-5.191.776-9.549 2.329-13.071a23.968 23.968 0 0 1 4.745-6.987c2.004-2.062 4.201-3.593 6.588-4.589 3.175-1.345 6.836-2.017 10.985-2.017 7.509 0 13.517 2.329 18.025 6.987s6.762 11.137 6.762 19.434c0 8.228-2.236 14.665-6.71 19.311-4.473 4.647-10.452 6.971-17.938 6.971-7.579 0-13.605-2.312-18.078-6.936-4.472-4.624-6.708-10.992-6.708-19.103zm10.603-.348c0 5.771 1.332 10.146 3.998 13.123 2.665 2.979 6.049 4.468 10.151 4.468 4.102 0 7.468-1.478 10.099-4.433s3.946-7.388 3.946-13.298c0-5.84-1.281-10.197-3.841-13.071-2.561-2.873-5.962-4.311-10.203-4.311s-7.66 1.455-10.255 4.363c-2.597 2.909-3.895 7.296-3.895 13.159zm46.827-25.447h18.807c4.241 0 7.475.324 9.699.974 2.99.881 5.551 2.445 7.683 4.692 2.133 2.249 3.755 5.001 4.867 8.257 1.112 3.257 1.669 7.271 1.669 12.046 0 4.195-.521 7.811-1.564 10.846-1.274 3.709-3.094 6.71-5.458 9.004-1.785 1.738-4.195 3.095-7.23 4.067-2.272.719-5.308 1.078-9.108 1.078h-19.363V88.566zm10.29 8.621v33.756h7.683c2.873 0 4.948-.162 6.223-.486 1.669-.417 3.054-1.124 4.154-2.121 1.101-.996 1.999-2.636 2.694-4.919.695-2.282 1.043-5.394 1.043-9.334 0-3.939-.348-6.964-1.043-9.073-.695-2.108-1.669-3.755-2.92-4.937-1.252-1.182-2.84-1.981-4.763-2.398-1.438-.324-4.254-.487-8.448-.487h-4.623zm61.011 42.343V88.566h34.938v8.621h-24.648v12.063h21.276v8.621h-21.276v21.658h-10.29zm41.334-25.169c0-5.191.776-9.549 2.329-13.071a23.952 23.952 0 0 1 4.746-6.987c2.004-2.062 4.2-3.593 6.587-4.589 3.176-1.345 6.837-2.017 10.985-2.017 7.51 0 13.518 2.329 18.025 6.987s6.762 11.137 6.762 19.434c0 8.228-2.236 14.665-6.709 19.311-4.474 4.647-10.453 6.971-17.938 6.971-7.579 0-13.604-2.312-18.077-6.936-4.474-4.624-6.71-10.992-6.71-19.103zm10.604-.348c0 5.771 1.332 10.146 3.998 13.123 2.664 2.979 6.049 4.468 10.15 4.468 4.103 0 7.469-1.478 10.1-4.433 2.63-2.955 3.945-7.388 3.945-13.298 0-5.84-1.281-10.197-3.842-13.071-2.561-2.873-5.962-4.311-10.203-4.311s-7.66 1.455-10.255 4.363c-2.595 2.909-3.893 7.296-3.893 13.159zm46.896 25.517V88.566h21.658c5.445 0 9.403.458 11.871 1.373 2.469.916 4.444 2.544 5.928 4.885 1.482 2.341 2.225 5.018 2.225 8.03 0 3.824-1.124 6.981-3.372 9.473-2.248 2.492-5.608 4.062-10.081 4.711 2.225 1.298 4.061 2.724 5.51 4.275 1.448 1.554 3.4 4.312 5.857 8.274l6.223 9.942H491.59l-7.439-11.09c-2.643-3.963-4.45-6.46-5.424-7.491s-2.005-1.738-3.094-2.121c-1.09-.382-2.816-.573-5.18-.573h-2.086v21.275h-10.29zm10.29-29.411h7.613c4.937 0 8.019-.209 9.247-.626s2.19-1.135 2.886-2.155c.695-1.02 1.043-2.295 1.043-3.824 0-1.715-.458-3.1-1.373-4.154-.916-1.055-2.208-1.721-3.877-1.999-.834-.115-3.337-.174-7.509-.174h-8.03v12.932zm41.022 29.411v-9.769h9.769v9.769h-9.769zm19.781 0v-9.769h9.769v9.769h-9.769zm19.78 0v-9.769h9.769v9.769h-9.769z" fill="#08589A"/></svg>