<?xml version="1.0" encoding="utf-8"?>
<!-- Generator: Adobe Illustrator 16.0.0, SVG Export Plug-In . SVG Version: 6.00 Build 0)  -->
<!DOCTYPE svg PUBLIC "-//W3C//DTD SVG 1.1//EN" "http://www.w3.org/Graphics/SVG/1.1/DTD/svg11.dtd">
<svg version="1.1" id="Layer_1" xmlns="http://www.w3.org/2000/svg" xmlns:xlink="http://www.w3.org/1999/xlink" x="0px" y="0px"
	 width="200px" height="200px" viewBox="0 0 200 200" enable-background="new 0 0 200 200" xml:space="preserve">
<g id="Google_x2B__5_">
	<path fill="#55b145" d="M99.888,199.793C44.758,199.793,0,155.011,0,99.897C0,44.767,44.758,0,99.888,0
		c55.14,0,99.889,44.767,99.889,99.897C199.776,155.011,155.027,199.793,99.888,199.793z M99.888,7.589
		C49.054,7.589,7.58,49.063,7.58,99.897c0,50.825,41.475,92.309,92.308,92.309c50.816,0,92.3-41.484,92.3-92.309
		C192.188,49.063,150.704,7.589,99.888,7.589z"/>
	<path fill="#55b145" d="M80.414,92.563v12.897c0,0,12.386,0,17.45,0c-2.782,8.338-7.079,12.898-17.45,12.898
		c-10.627,0-18.965-8.601-18.965-19.227c0-10.618,8.338-19.219,18.965-19.219c5.563,0,9.358,2.025,12.643,4.807
		c2.782-2.782,2.526-3.037,9.104-9.358c-5.82-5.309-13.4-8.346-21.746-8.346c-17.96,0-32.372,14.42-32.372,32.372
		c0,17.951,14.411,32.38,32.372,32.38c26.799,0,33.384-23.277,31.104-38.957H80.414V92.563z"/>
	<polygon fill="#55b145" points="138.827,93.32 138.827,81.938 131,81.938 131,93.32 119.362,93.32 119.362,101.41 131,101.41 
		131,112.795 138.827,112.795 138.827,101.41 150.21,101.41 150.21,93.32 	"/>
</g>
</svg>
