<?xml version="1.0" encoding="utf-8"?>
<!-- Generator: Adobe Illustrator 16.0.0, SVG Export Plug-In . SVG Version: 6.00 Build 0)  -->
<!DOCTYPE svg PUBLIC "-//W3C//DTD SVG 1.1//EN" "http://www.w3.org/Graphics/SVG/1.1/DTD/svg11.dtd">
<svg version="1.1" id="Layer_1" xmlns="http://www.w3.org/2000/svg" xmlns:xlink="http://www.w3.org/1999/xlink" x="0px" y="0px"
	 width="200px" height="200px" viewBox="0 0 200 200" enable-background="new 0 0 200 200" xml:space="preserve">
<g id="LinKeDin_2_">
	<g id="LinkedIn_1_">
		<rect x="57.471" y="85.558" fill="#55b145" width="18.226" height="57.727"/>
		<path fill="#55b145" d="M125.332,84.809c-10.391,0-16.965,5.553-18.226,9.606v-9.095H86.598c0.239,4.804,0,57.708,0,57.708h20.509
			v-31.138c0-1.771,0-3.541,0.493-4.802c1.517-3.544,4.311-7.087,9.863-7.087c7.102,0,10.39,5.315,10.39,13.149v29.877h20.765
			v-32.158C148.361,93.155,138.242,84.809,125.332,84.809z"/>
		<path fill="#55b145" d="M66.089,58.22c-6.846,0-11.139,4.309-11.139,10.135c0,5.554,4.293,9.862,10.885,9.862h0.254
			c6.831,0,11.14-4.309,11.14-10.118C76.974,62.529,72.919,58.22,66.089,58.22z"/>
	</g>
	<path fill="#55b145" d="M100.003,199.989C44.832,199.989,0,155.191,0,100.003C0,44.815,44.832,0,100.003,0
		c55.188,0,100.003,44.815,100.003,100.003C200.006,155.191,155.191,199.989,100.003,199.989z M100.003,7.58
		c-50.879,0-92.406,41.527-92.406,92.423c0,50.862,41.527,92.388,92.406,92.388s92.406-41.525,92.406-92.388
		C192.409,49.107,150.882,7.58,100.003,7.58z"/>
</g>
</svg>
