<?xml version="1.0" encoding="utf-8"?>
<!-- Generator: Adobe Illustrator 16.0.0, SVG Export Plug-In . SVG Version: 6.00 Build 0)  -->
<!DOCTYPE svg PUBLIC "-//W3C//DTD SVG 1.1//EN" "http://www.w3.org/Graphics/SVG/1.1/DTD/svg11.dtd">
<svg version="1.1" id="Layer_1" xmlns="http://www.w3.org/2000/svg" xmlns:xlink="http://www.w3.org/1999/xlink" x="0px" y="0px"
	 width="200px" height="200px" viewBox="0 0 200 200" enable-background="new 0 0 200 200" xml:space="preserve">
<g id="Twitter_7_">
	<path id="Twitter_1_" fill="#55b145" d="M143.792,61.513c-3.781,2.283-7.835,4.055-12.402,4.804
		c-3.542-3.781-8.602-6.32-14.172-6.32c-10.63,0-19.488,8.875-19.488,20.016c0,1.499,0.238,3.032,0.511,4.548
		c-16.217-0.767-30.391-8.875-40.015-20.765c-1.771,3.032-2.539,6.337-2.539,10.119c0,6.848,3.543,12.912,8.62,16.728
		c-3.305,0-6.082-1.022-8.859-2.538v0.255c0,9.608,6.577,17.716,15.689,19.488c-1.516,0.511-3.288,0.75-5.059,0.75
		c-1.26,0-2.538,0-3.543-0.239c2.521,7.837,9.608,13.662,18.228,13.918c-6.576,5.332-14.939,8.603-24.053,8.603
		c-1.516,0-3.032,0-4.566-0.238c8.62,5.554,18.738,8.857,29.88,8.857c35.705,0,55.447-30.39,55.447-56.708c0-0.767,0-1.788,0-2.539
		c3.8-2.793,7.088-6.336,9.626-10.374c-3.543,1.516-7.359,2.777-11.14,3.032C139.244,69.877,142.293,66.079,143.792,61.513z"/>
	<path fill="#55b145" d="M100.012,200.007C44.819,200.007,0,155.205,0,100.012S44.819,0,100.012,0
		c55.193,0,99.995,44.818,99.995,100.012S155.205,200.007,100.012,200.007z M100.012,7.58c-50.9,0-92.432,41.532-92.432,92.432
		c0,50.865,41.531,92.396,92.432,92.396c50.867,0,92.398-41.531,92.398-92.396C192.41,49.112,150.879,7.58,100.012,7.58z"/>
</g>
</svg>
