<?xml version="1.0" encoding="utf-8"?>
<!-- Generator: Adobe Illustrator 16.0.0, SVG Export Plug-In . SVG Version: 6.00 Build 0)  -->
<!DOCTYPE svg PUBLIC "-//W3C//DTD SVG 1.1//EN" "http://www.w3.org/Graphics/SVG/1.1/DTD/svg11.dtd">
<svg version="1.1" id="Layer_1" xmlns="http://www.w3.org/2000/svg" xmlns:xlink="http://www.w3.org/1999/xlink" x="0px" y="0px"
	 width="74.711px" height="62.826px" viewBox="0 0 74.711 62.826" enable-background="new 0 0 74.711 62.826" xml:space="preserve">
<g>
	<g>
		<g>
			<circle cx="14.173" cy="31.52" r="14.173"/>
			<path fill="#878786" d="M59.527,31.52c0,7.827-6.346,14.173-14.174,14.173c-7.827,0-14.173-6.347-14.173-14.173
				c0-7.828,6.346-14.174,14.173-14.174C53.182,17.346,59.527,23.692,59.527,31.52z"/>
			<path fill="#FFFFFF" d="M43.936,36.519c0,0.904,0.58,1.41,1.357,1.41c0.778,0,1.357-0.506,1.357-1.41V26.248
				c0-0.904-0.579-1.41-1.357-1.41c-0.777,0-1.357,0.506-1.357,1.41V36.519z"/>
			<path fill="#FFFFFF" d="M13.859,24.946h-3.001c-0.814,0-1.393,0.561-1.393,1.393v10.125c0,1.031,0.832,1.355,1.429,1.355h3.146
				c3.726,0,6.185-2.459,6.185-6.255C20.225,27.549,17.91,24.946,13.859,24.946z M14.004,35.325h-1.826v-7.884h1.646
				c2.495,0,3.58,1.682,3.58,3.996C17.403,33.606,16.336,35.325,14.004,35.325z"/>
		</g>
		<g>
			<path fill="#009EE3" d="M9.864,55.231h2.257c0.506,0,0.98,0.054,1.422,0.162c0.44,0.108,0.82,0.306,1.139,0.592
				s0.569,0.673,0.754,1.161s0.277,1.112,0.277,1.871c0,0.745-0.093,1.364-0.277,1.855c-0.185,0.492-0.436,0.883-0.754,1.172
				s-0.698,0.492-1.139,0.607c-0.441,0.116-0.916,0.174-1.422,0.174H9.864V55.231z M12.121,62.023c0.325,0,0.644-0.034,0.955-0.104
				c0.311-0.068,0.588-0.209,0.83-0.423c0.242-0.213,0.438-0.518,0.586-0.911c0.147-0.395,0.223-0.917,0.223-1.568
				c0-0.644-0.075-1.161-0.223-1.552c-0.148-0.391-0.346-0.69-0.592-0.9c-0.246-0.209-0.524-0.349-0.836-0.417
				c-0.311-0.069-0.629-0.104-0.954-0.104h-1.248v5.979H12.121z"/>
			<path fill="#009EE3" d="M16.931,58.139c0.188-0.115,0.446-0.222,0.776-0.319c0.328-0.098,0.714-0.146,1.155-0.146
				c0.701,0,1.217,0.153,1.546,0.461s0.494,0.812,0.494,1.514v1.964c0,0.231,0.047,0.394,0.141,0.488
				c0.094,0.094,0.264,0.141,0.51,0.141v0.641c-0.115,0.021-0.227,0.036-0.33,0.043c-0.105,0.007-0.201,0.011-0.288,0.011
				c-0.274,0-0.485-0.063-0.63-0.189c-0.145-0.127-0.242-0.303-0.293-0.526c-0.094,0.079-0.205,0.161-0.336,0.244
				c-0.13,0.083-0.275,0.161-0.434,0.233c-0.16,0.072-0.33,0.13-0.51,0.173c-0.182,0.044-0.365,0.065-0.554,0.065
				c-0.492,0-0.87-0.106-1.134-0.32c-0.264-0.213-0.396-0.544-0.396-0.992c0-0.362,0.109-0.656,0.326-0.885
				c0.217-0.228,0.49-0.406,0.818-0.537c0.33-0.13,0.686-0.222,1.069-0.276s0.745-0.092,1.085-0.114v-0.054
				c0-0.21-0.017-0.395-0.049-0.554c-0.033-0.159-0.094-0.293-0.185-0.401s-0.214-0.189-0.369-0.244
				c-0.155-0.054-0.353-0.081-0.591-0.081c-0.261,0-0.508,0.043-0.744,0.13c-0.234,0.087-0.428,0.181-0.58,0.282L16.931,58.139z
				 M19.947,60.417c-0.268,0.015-0.539,0.042-0.814,0.082c-0.274,0.04-0.521,0.102-0.742,0.185s-0.402,0.191-0.543,0.325
				s-0.211,0.299-0.211,0.494c0,0.238,0.075,0.408,0.227,0.51c0.152,0.102,0.365,0.151,0.641,0.151c0.115,0,0.24-0.013,0.375-0.038
				c0.133-0.024,0.266-0.058,0.396-0.098c0.13-0.039,0.255-0.083,0.374-0.13s0.219-0.096,0.299-0.146V60.417z"/>
			<path fill="#009EE3" d="M22.626,57.781h0.933v0.488c0.072-0.072,0.168-0.144,0.288-0.212c0.119-0.068,0.247-0.132,0.385-0.189
				c0.138-0.059,0.28-0.105,0.429-0.142s0.295-0.054,0.439-0.054c0.557,0,0.982,0.151,1.275,0.455s0.439,0.728,0.439,1.27v3.429
				h-0.934V59.43c0-0.34-0.087-0.586-0.26-0.737c-0.174-0.152-0.413-0.228-0.717-0.228c-0.123,0-0.254,0.018-0.391,0.054
				s-0.268,0.08-0.391,0.13c-0.123,0.051-0.234,0.104-0.336,0.158c-0.102,0.054-0.178,0.1-0.229,0.135v3.885h-0.933V57.781z"/>
			<path fill="#009EE3" d="M28.527,61.601c0.072,0.064,0.164,0.132,0.276,0.2c0.112,0.069,0.235,0.13,0.369,0.185
				c0.134,0.054,0.278,0.098,0.434,0.13c0.155,0.033,0.313,0.049,0.472,0.049c0.34,0,0.606-0.066,0.798-0.2
				c0.192-0.134,0.288-0.295,0.288-0.483c0-0.245-0.1-0.427-0.299-0.542c-0.199-0.116-0.548-0.221-1.047-0.314
				c-0.232-0.044-0.454-0.096-0.668-0.158c-0.213-0.061-0.402-0.146-0.568-0.255c-0.167-0.108-0.301-0.247-0.402-0.417
				s-0.152-0.386-0.152-0.646c0-0.225,0.051-0.429,0.152-0.613s0.24-0.34,0.418-0.467c0.178-0.126,0.387-0.224,0.629-0.293
				c0.242-0.068,0.505-0.103,0.787-0.103c0.412,0,0.777,0.047,1.096,0.141s0.578,0.235,0.781,0.423l-0.629,0.662
				c-0.138-0.115-0.322-0.219-0.554-0.31c-0.231-0.09-0.485-0.135-0.76-0.135c-0.347,0-0.604,0.062-0.771,0.184
				c-0.166,0.123-0.249,0.286-0.249,0.488c0,0.203,0.104,0.356,0.314,0.462c0.21,0.104,0.554,0.204,1.03,0.298
				c0.551,0.102,0.986,0.259,1.309,0.472c0.321,0.214,0.482,0.545,0.482,0.993c0,0.535-0.197,0.933-0.592,1.193
				s-0.916,0.391-1.568,0.391c-0.194,0-0.39-0.017-0.585-0.049s-0.382-0.077-0.56-0.136c-0.177-0.058-0.342-0.13-0.493-0.217
				s-0.278-0.185-0.38-0.293L28.527,61.601z"/>
			<path fill="#009EE3" d="M33.201,55.221h0.934v4.99l2.159-2.43h1.149l-1.801,1.941l2.127,3.104h-1.107l-1.638-2.441l-0.89,0.955
				v1.486h-0.934V55.221z"/>
			<path fill="#009EE3" d="M41.197,55.231h0.999v7.595h-0.999V55.231z"/>
			<path fill="#009EE3" d="M44.015,57.781h0.934v0.488c0.072-0.072,0.168-0.144,0.287-0.212s0.248-0.132,0.385-0.189
				c0.139-0.059,0.281-0.105,0.43-0.142s0.295-0.054,0.44-0.054c0.557,0,0.98,0.151,1.273,0.455s0.439,0.728,0.439,1.27v3.429
				h-0.932V59.43c0-0.34-0.088-0.586-0.262-0.737c-0.174-0.152-0.412-0.228-0.716-0.228c-0.123,0-0.254,0.018-0.391,0.054
				c-0.138,0.036-0.268,0.08-0.391,0.13c-0.123,0.051-0.235,0.104-0.337,0.158c-0.101,0.054-0.177,0.1-0.228,0.135v3.885h-0.934
				V57.781z"/>
			<path fill="#009EE3" d="M53.113,62.403c-0.146,0.13-0.342,0.251-0.586,0.363c-0.246,0.112-0.51,0.168-0.793,0.168
				c-0.281,0-0.559-0.045-0.83-0.136c-0.271-0.09-0.512-0.234-0.721-0.434c-0.211-0.199-0.379-0.461-0.506-0.787
				c-0.125-0.325-0.189-0.723-0.189-1.193c0-0.478,0.066-0.888,0.201-1.231c0.133-0.344,0.309-0.625,0.525-0.846
				s0.463-0.382,0.738-0.483s0.553-0.151,0.836-0.151c0.246,0,0.484,0.036,0.717,0.108c0.23,0.072,0.418,0.159,0.563,0.26v-2.82
				h0.934v7.605h-0.889V62.403z M53.068,58.855c-0.107-0.08-0.271-0.163-0.492-0.25s-0.455-0.13-0.701-0.13
				c-0.15,0-0.313,0.025-0.482,0.076c-0.17,0.05-0.328,0.143-0.473,0.276s-0.264,0.321-0.357,0.564
				c-0.094,0.242-0.141,0.551-0.141,0.927c0,0.362,0.045,0.66,0.135,0.896c0.092,0.235,0.207,0.422,0.348,0.559
				c0.141,0.138,0.301,0.233,0.479,0.288c0.176,0.054,0.348,0.081,0.514,0.081c0.24,0,0.469-0.047,0.689-0.141
				c0.221-0.095,0.381-0.181,0.482-0.261V58.855z"/>
			<path fill="#009EE3" d="M55.568,57.781h0.934v3.45c0,0.34,0.086,0.577,0.26,0.711s0.412,0.2,0.717,0.2
				c0.252,0,0.496-0.053,0.732-0.157c0.234-0.104,0.402-0.201,0.504-0.287v-3.917h0.934v5.045h-0.934v-0.543
				c-0.066,0.08-0.156,0.158-0.271,0.233c-0.115,0.076-0.24,0.146-0.375,0.206c-0.133,0.062-0.275,0.112-0.428,0.152
				s-0.297,0.06-0.434,0.06c-0.559,0-0.971-0.151-1.238-0.456c-0.268-0.304-0.4-0.727-0.4-1.269V57.781z"/>
			<path fill="#009EE3" d="M61.361,61.601c0.072,0.064,0.164,0.132,0.275,0.2c0.113,0.069,0.236,0.13,0.369,0.185
				c0.135,0.054,0.279,0.098,0.434,0.13c0.156,0.033,0.314,0.049,0.473,0.049c0.34,0,0.605-0.066,0.797-0.2
				c0.193-0.134,0.289-0.295,0.289-0.483c0-0.245-0.1-0.427-0.299-0.542c-0.199-0.116-0.549-0.221-1.047-0.314
				c-0.232-0.044-0.455-0.096-0.668-0.158c-0.213-0.061-0.402-0.146-0.568-0.255c-0.168-0.108-0.301-0.247-0.402-0.417
				s-0.152-0.386-0.152-0.646c0-0.225,0.051-0.429,0.152-0.613s0.24-0.34,0.418-0.467c0.178-0.126,0.387-0.224,0.629-0.293
				c0.242-0.068,0.504-0.103,0.787-0.103c0.412,0,0.777,0.047,1.096,0.141s0.578,0.235,0.781,0.423l-0.629,0.662
				c-0.139-0.115-0.322-0.219-0.555-0.31c-0.23-0.09-0.484-0.135-0.76-0.135c-0.346,0-0.604,0.062-0.77,0.184
				c-0.166,0.123-0.25,0.286-0.25,0.488c0,0.203,0.105,0.356,0.314,0.462c0.211,0.104,0.555,0.204,1.031,0.298
				c0.551,0.102,0.986,0.259,1.309,0.472c0.32,0.214,0.482,0.545,0.482,0.993c0,0.535-0.197,0.933-0.592,1.193
				s-0.916,0.391-1.568,0.391c-0.195,0-0.391-0.017-0.586-0.049s-0.381-0.077-0.559-0.136c-0.178-0.058-0.342-0.13-0.494-0.217
				c-0.15-0.087-0.277-0.185-0.379-0.293L61.361,61.601z"/>
			<path fill="#009EE3" d="M66.473,58.529h-0.836v-0.748h0.836v-1.107c0.08-0.173,0.203-0.304,0.369-0.391
				c0.166-0.086,0.354-0.13,0.564-0.13v1.628h1.303c0,0.145-0.021,0.282-0.061,0.412s-0.107,0.242-0.201,0.336h-1.041v2.832
				c0,0.304,0.053,0.507,0.156,0.607c0.105,0.102,0.285,0.152,0.537,0.152c0.066,0,0.16-0.007,0.283-0.021s0.213-0.029,0.271-0.044
				v0.771c-0.029,0.007-0.076,0.015-0.141,0.021c-0.066,0.008-0.135,0.015-0.207,0.021c-0.072,0.008-0.143,0.013-0.211,0.017
				c-0.07,0.004-0.125,0.006-0.168,0.006c-0.24,0-0.449-0.022-0.631-0.065c-0.18-0.043-0.332-0.119-0.455-0.228
				s-0.215-0.259-0.277-0.45c-0.061-0.192-0.092-0.437-0.092-0.732V58.529z"/>
			<path fill="#009EE3" d="M69.793,57.781h0.934v0.813c0.123-0.274,0.305-0.497,0.547-0.667s0.541-0.255,0.896-0.255
				c0.137,0,0.285,0.018,0.443,0.054l-0.217,0.868c-0.035-0.015-0.09-0.027-0.162-0.038s-0.16-0.017-0.26-0.017
				c-0.117,0-0.236,0.017-0.359,0.049c-0.123,0.033-0.242,0.089-0.357,0.169c-0.115,0.079-0.221,0.186-0.314,0.319
				c-0.094,0.135-0.166,0.303-0.217,0.505v3.244h-0.934V57.781z"/>
			<path fill="#009EE3" d="M74.082,56.457c-0.182,0-0.33-0.068-0.451-0.206c-0.119-0.138-0.178-0.293-0.178-0.467
				c0-0.166,0.059-0.317,0.178-0.455c0.121-0.138,0.27-0.206,0.451-0.206c0.166,0,0.313,0.068,0.439,0.206s0.189,0.289,0.189,0.455
				c0,0.174-0.063,0.329-0.189,0.467S74.248,56.457,74.082,56.457z M73.605,57.781h0.932v5.045h-0.932V57.781z"/>
		</g>
	</g>
</g>
<g>
	<path d="M1.965,0h1.13l1.63,3.397L6.295,0h1.139v5.953H6.491V1.495L5.039,4.62H4.394L2.898,1.495v4.458H1.965V0z"/>
	<path d="M8.954,0h3.771v0.849H9.931v1.673h2.115v0.807H9.931v1.792h2.964v0.832H8.954V0z"/>
	<path d="M13.949,0h1.961c0.402,0,0.77,0.048,1.105,0.145c0.333,0.096,0.619,0.258,0.857,0.488c0.237,0.229,0.423,0.533,0.555,0.914
		c0.133,0.379,0.2,0.852,0.2,1.418s-0.067,1.04-0.204,1.422c-0.135,0.382-0.324,0.689-0.564,0.921
		c-0.241,0.232-0.528,0.397-0.862,0.497c-0.334,0.099-0.696,0.148-1.087,0.148h-1.961V0z M15.91,5.121
		c0.227,0,0.446-0.03,0.658-0.089c0.213-0.059,0.398-0.17,0.556-0.331c0.159-0.162,0.286-0.382,0.383-0.662
		c0.096-0.281,0.144-0.641,0.144-1.083c0-0.431-0.048-0.783-0.144-1.058c-0.097-0.274-0.226-0.489-0.387-0.645
		c-0.162-0.156-0.348-0.263-0.561-0.319c-0.212-0.057-0.432-0.085-0.659-0.085h-0.976v4.271H15.91z"/>
	<path d="M19.916,0h0.977v5.121h2.521v0.832h-3.498V0z"/>
	<path d="M24.433,0h3.771v0.849H25.41v1.673h2.114v0.807H25.41v1.792h2.963v0.832h-3.94V0z"/>
	<path d="M29.427,0h1.129l1.63,3.397L33.758,0h1.139v5.953h-0.943V1.495L32.501,4.62h-0.645l-1.494-3.125v4.458h-0.935V0z"/>
	<path d="M39.635,0h1.009l2.021,5.953h-1.027l-0.45-1.375h-2.122l-0.451,1.375h-1.002L39.635,0z M40.934,3.779l-0.807-2.53
		l-0.808,2.53H40.934z"/>
	<path d="M43.663,0h3.883v0.849H44.64v1.75h2.438v0.807H44.64v2.547h-0.977V0z"/>
</g>
</svg>
